Coordinates
version=1
nRows=10
nColumns=46
inDegrees=yes

Units are S.I. units (second, meters, Newtons, ...)
Angles are in degrees.

endheader
time	pelvis_tilt	pelvis_list	pelvis_rotation	pelvis_tx	pelvis_ty	pelvis_tz	bb_angle	bb_tx	bb_ty	bb_tz	hip_flexion_r	hip_adduction_r	hip_rotation_r	knee_angle_r	knee_angle_r_beta	ankle_angle_r	subtalar_angle_r	mtp_angle_r	crank_angle_r	hip_flexion_l	hip_adduction_l	hip_rotation_l	knee_angle_l	knee_angle_l_beta	ankle_angle_l	subtalar_angle_l	mtp_angle_l	crank_angle_l	lumbar_extension	lumbar_bending	lumbar_rotation	arm_flex_r	arm_add_r	arm_rot_r	elbow_flex_r	pro_sup_r	wrist_flex_r	wrist_dev_r	arm_flex_l	arm_add_l	arm_rot_l	elbow_flex_l	pro_sup_l	wrist_flex_l	wrist_dev_l
      7.50500000	    -23.11581752	     -0.48118326	     -4.83945350	      0.17511780	      1.04192858	     -0.22509074	      0.00000000	      0.50000000	      0.00000000	      0.25000000	     68.45608538	     -1.31887114	      1.45798719	     57.31448983	      1.00032656	      6.60303381	     -3.03024476	      0.00000000	      0.00000000	     64.46170130	     -9.47164479	     -1.97060659	     96.22072956	      1.67936854	      0.57131392	    -15.96631909	      0.00000000	      0.00000000	    -60.98999494	      0.42857088	      0.37215774	     77.74416471	    -19.06829737	     29.80408212	     90.90941888	     52.21150858	      0.00000000	      0.00000000	     66.41598567	    -23.78625375	     13.48283066	     96.49510162	     51.13073529	      0.00000000	      0.00000000
      7.51000000	    -23.02754905	      0.07169297	     -4.46104800	      0.17542435	      1.04249732	     -0.22476108	      0.00000000	      0.50000000	      0.00000000	      0.25000000	     66.57171315	     -1.99390906	      1.51359445	     54.48407892	      0.95092657	      5.51944524	     -2.33094934	      0.00000000	      0.00000000	     65.62744473	     -9.08355973	     -2.08621527	     98.15473008	      1.71312322	      0.84771718	    -15.69659833	      0.00000000	      0.00000000	    -60.88260521	      0.14291621	     -0.25975863	     77.28723679	    -19.18228127	     29.59030072	     90.82129919	     52.15913940	      0.00000000	      0.00000000	     66.54668600	    -23.95593225	     13.73542499	     96.26266418	     51.10411845	      0.00000000	      0.00000000
      7.51500000	    -22.93511716	      0.56818307	     -4.07409214	      0.17562939	      1.04288475	     -0.22434240	      0.00000000	      0.50000000	      0.00000000	      0.25000000	     64.61553246	     -2.61931234	      1.51648509	     51.57999203	      0.90024069	      4.66792526	     -1.89139647	      0.00000000	      0.00000000	     66.84038856	     -8.69511143	     -2.10423847	    100.08616089	      1.74683304	      1.17676828	    -15.39181454	      0.00000000	      0.00000000	    -60.79477488	     -0.12304286	     -0.92374699	     76.87855997	    -19.26510279	     29.33878243	     90.74591460	     52.10194296	      0.00000000	      0.00000000	     66.73165815	    -24.15562722	     13.99940686	     96.02537803	     51.07450926	      0.00000000	      0.00000000
      7.52000000	    -22.56163622	      0.60450344	     -3.73305538	      0.17597757	      1.04392910	     -0.22354958	      0.00000000	      0.50000000	      0.00000000	      0.25000000	     62.17863713	     -2.88125678	      1.15074008	     48.52772530	      0.84696859	      3.28211930	     -2.01624619	      0.00000000	      0.00000000	     67.86180746	     -8.69706332	     -1.64238098	    102.06051875	      1.78129209	      2.00289466	    -14.02072619	      0.00000000	      0.00000000	    -61.05489404	     -0.20521186	     -1.04096841	     76.48539510	    -18.88828441	     28.45524198	     90.29992214	     51.90571352	      0.00000000	      0.00000000	     67.92875873	    -25.32076667	     16.06565440	     95.14543296	     51.12531041	      0.00000000	      0.00000000
      7.52500000	    -22.32248736	      0.90547624	     -3.33279602	      0.17634649	      1.04475117	     -0.22288111	      0.00000000	      0.50000000	      0.00000000	      0.25000000	     59.93792175	     -3.37690883	      0.96690273	     45.57411832	      0.79541842	      2.21714410	     -1.58935627	      0.00000000	      0.00000000	     69.01485376	     -8.48654010	     -1.50695866	    103.85979683	      1.81269542	      2.29654860	    -13.61068032	      0.00000000	      0.00000000	    -61.17169596	     -0.37435157	     -1.54358411	     76.10035468	    -18.85788560	     28.21000726	     90.22785896	     51.85925169	      0.00000000	      0.00000000	     68.30483300	    -25.58025673	     16.46677170	     94.84471363	     51.10862449	      0.00000000	      0.00000000
      7.53000000	    -22.12982160	      1.21927382	     -2.84018601	      0.17670319	      1.04528433	     -0.22221780	      0.00000000	      0.50000000	      0.00000000	      0.25000000	     57.75113034	     -3.91214943	      0.74837885	     42.68070205	      0.74491878	      1.06253203	     -1.48269852	      0.00000000	      0.00000000	     70.27258704	     -8.18228284	     -1.27420517	    105.64663916	      1.84388170	      2.80518474	    -12.84401282	      0.00000000	      0.00000000	    -61.20483798	     -0.52846373	     -2.04828413	     75.68599541	    -18.80511124	     27.86951927	     89.97993099	     51.78511751	      0.00000000	      0.00000000	     68.89976536	    -26.00670367	     17.42911463	     94.40638686	     51.13295500	      0.00000000	      0.00000000
      7.53500000	    -22.12256019	      1.78459324	     -2.28734528	      0.17703172	      1.04544063	     -0.22165405	      0.00000000	      0.50000000	      0.00000000	      0.25000000	     55.86459870	     -4.70292618	      0.64596195	     40.00053019	      0.69814095	      0.18163497	     -0.84919710	      0.00000000	      0.00000000	     71.71707979	     -7.66565390	     -1.32104040	    107.26976124	      1.87221052	      2.99467166	    -12.52527408	      0.00000000	      0.00000000	    -61.00537201	     -0.80268791	     -2.86842622	     75.12480193	    -18.89379374	     27.77947534	     89.84250845	     51.74337067	      0.00000000	      0.00000000	     69.14272977	    -26.07516568	     17.73710879	     94.25105846	     51.12191236	      0.00000000	      0.00000000
      7.54000000	    -21.92127537	      1.99107658	     -1.80231166	      0.17739872	      1.04606601	     -0.22110342	      0.00000000	      0.50000000	      0.00000000	      0.25000000	     53.69877714	     -5.18478540	      0.22545908	     37.26522563	      0.65040088	     -1.24047077	     -0.71126338	      0.00000000	      0.00000000	     73.01886897	     -7.38617201	     -1.01929146	    108.89136831	      1.90051290	      3.48605514	    -11.73698946	      0.00000000	      0.00000000	    -61.09767412	     -0.91097467	     -3.32094983	     74.70814545	    -18.61091702	     27.27051945	     89.35305095	     51.66095736	      0.00000000	      0.00000000	     70.23648842	    -26.94727825	     19.77904868	     93.47720103	     51.23589168	      0.00000000	      0.00000000
      7.54500000	    -22.00169188	      2.51347964	     -1.20320962	      0.17756319	      1.04603739	     -0.22068209	      0.00000000	      0.50000000	      0.00000000	      0.25000000	     52.07896280	     -6.00534732	     -0.03170069	     35.01047029	      0.61104798	     -2.27775231	     -0.07961462	      0.00000000	      0.00000000	     74.61198475	     -6.80900021	     -1.03177842	    110.34705429	      1.92591942	      3.71368378	    -11.56297311	      0.00000000	      0.00000000	    -60.87159150	     -1.10193342	     -4.11592738	     74.28663366	    -18.71228132	     27.23471389	     89.25717731	     51.64918947	      0.00000000	      0.00000000	     70.49971586	    -26.94665864	     19.99020707	     93.39002056	     51.24050664	      0.00000000	      0.00000000
      7.55000000	    -21.82241063	      2.70575851	     -0.47919907	      0.17772011	      1.04648868	     -0.22021573	      0.00000000	      0.50000000	      0.00000000	      0.25000000	     50.12607681	     -6.61924155	     -0.70931097	     32.77058098	      0.57195454	     -3.75404596	     -0.06034999	      0.00000000	      0.00000000	     76.03672354	     -6.30399478	     -0.68417468	    111.75159498	      1.95043328	      4.05086414	    -10.70081395	      0.00000000	      0.00000000	    -60.95487236	     -1.00915777	     -4.70122464	     73.88197251	    -18.35125825	     26.63709810	     88.89359835	     51.57434528	      0.00000000	      0.00000000	     71.45114821	    -27.54575272	     21.52870801	     92.78914998	     51.32026204	      0.00000000	      0.00000000
